<svg width="40" height="40" viewBox="0 0 40 40" fill="none" xmlns="http://www.w3.org/2000/svg">
<path d="M25.9608 10.6418H14.0389C12.1361 10.6418 10.5879 12.19 10.5879 14.0929V26.0147C10.5879 27.9176 12.1361 29.4662 14.0389 29.4662H25.9608C27.8637 29.4662 29.4123 27.9181 29.4123 26.0147V14.0929C29.4123 12.19 27.8641 10.6418 25.9608 10.6418ZM19.9999 26.2509C16.5831 26.2509 13.8032 23.471 13.8032 20.0538C13.8032 16.6371 16.5831 13.8572 19.9999 13.8572C23.4171 13.8572 26.197 16.6371 26.197 20.0538C26.197 23.4706 23.4166 26.2509 19.9999 26.2509ZM26.3962 15.1384C25.5873 15.1384 24.9296 14.4806 24.9296 13.6722C24.9296 12.8638 25.5873 12.2061 26.3962 12.2061C27.2046 12.2061 27.8623 12.8638 27.8623 13.6722C27.8623 14.4806 27.2046 15.1384 26.3962 15.1384Z" fill="#4169E1"/>
<path d="M19.9999 16.4758C18.0275 16.4758 16.4214 18.081 16.4214 20.0534C16.4214 22.0268 18.0275 23.6324 19.9999 23.6324C21.9732 23.6324 23.578 22.0268 23.578 20.0534C23.578 18.0815 21.9728 16.4758 19.9999 16.4758Z" fill="#4169E1"/>
<path d="M20 0C8.95475 0 0 8.95475 0 20C0 31.0453 8.95475 40 20 40C31.0453 40 40 31.0453 40 20C40 8.95475 31.0453 0 20 0ZM32.0306 26.0148C32.0306 29.3621 29.3081 32.0845 25.9609 32.0845H14.0391C10.6923 32.0845 7.96943 29.3621 7.96943 26.0148V14.093C7.96943 10.7462 10.6923 8.02335 14.0391 8.02335H25.9609C29.3081 8.02335 32.0306 10.7462 32.0306 14.093V26.0148Z" fill="#4169E1"/>
</svg>
