<svg width="40" height="38" viewBox="0 0 40 38" fill="none" xmlns="http://www.w3.org/2000/svg">
<path d="M0.0305481 14.361C0.0306244 14.2999 0.0440636 14.2075 0.067421 14.1543C0.128906 13.9276 0.265545 13.7205 0.470078 13.5759L6.19601 9.52877V5.19028C6.19601 4.61516 6.65477 4.14871 7.22039 4.14871H13.8078L19.4127 0.186588C19.763 -0.0613329 20.2281 -0.0623656 20.5795 0.184522L26.2206 4.14871H32.7792C33.345 4.14871 33.8036 4.61516 33.8036 5.19028V9.47769L39.5573 13.5211C39.8404 13.72 39.9935 14.038 39.9984 14.3631C39.9987 14.3692 40 14.375 40 14.3814L39.9695 36.9599C39.9691 37.2361 39.8608 37.5009 39.6685 37.696C39.4765 37.8907 39.2163 38 38.9451 38C38.9445 38 38.9441 38 38.9437 38L1.02297 37.947C0.457344 37.9462 -0.000782013 37.4792 0 36.904L0.0305481 14.361ZM6.19609 12.0659L2.92281 14.3789L6.19609 16.6927V12.0659ZM19.9988 2.3092L17.3965 4.14863H22.6162L19.9988 2.3092ZM31.7548 6.23185H8.24484V18.141L16.1383 23.7208L19.3566 21.1825C19.3616 21.1785 19.3659 21.176 19.3707 21.1725C19.7304 20.8981 20.2391 20.888 20.6124 21.1825L23.8541 23.7391L31.7548 18.1871V6.23185ZM33.8036 12.0099V16.7475L37.1744 14.3788L33.8036 12.0099ZM37.9486 16.3681L25.5526 25.0787L37.9236 34.8353L37.9486 16.3681ZM35.9473 35.9127L19.9845 23.3234L4.07891 35.8682L35.9473 35.9127ZM14.4419 25.0587L2.07656 16.3179L2.05156 34.8312L14.4419 25.0587Z" fill="#4169E1"/>
<path d="M13.0651 10.3982H26.9351C27.5007 10.3982 27.9595 10.8646 27.9595 11.4398C27.9595 12.0149 27.5007 12.4813 26.9351 12.4813H13.0651C12.4993 12.4813 12.0407 12.0149 12.0407 11.4398C12.0407 10.8646 12.4993 10.3982 13.0651 10.3982Z" fill="#4169E1"/>
<path d="M13.0651 15.8142H26.9351C27.5007 15.8142 27.9595 16.2807 27.9595 16.8558C27.9595 17.4309 27.5007 17.8973 26.9351 17.8973H13.0651C12.4993 17.8973 12.0407 17.4309 12.0407 16.8558C12.0407 16.2807 12.4993 15.8142 13.0651 15.8142Z" fill="#4169E1"/>
</svg>
