<svg width="28" height="41" viewBox="0 0 28 41" fill="none" xmlns="http://www.w3.org/2000/svg">
<path d="M0.661486 10.2045C0.806162 9.65754 1.09995 9.07473 1.3173 8.56446C3.91807 2.25956 9.6007 0 14.1891 0C20.3316 0 27.0968 4.15478 28 12.7188V14.4684C28 14.5415 27.9751 15.1974 27.9396 15.5255C27.4333 19.6069 24.2407 23.9445 21.8563 28.0259C19.2911 32.3986 16.6293 36.7002 13.9921 41C12.366 38.194 10.7457 35.3512 9.15665 32.6179C8.72357 31.8157 8.22084 31.0141 7.78729 30.2484C7.49831 29.7386 6.94625 29.2288 6.69404 28.7545C4.1289 24.017 0 19.2429 0 14.5414V12.6099C-9.53674e-05 12.1002 0.626238 10.3144 0.661486 10.2045ZM14.0767 18.9878C15.8823 18.9878 17.8586 18.0771 18.8341 15.562C18.9794 15.1616 18.9677 14.3593 18.9677 14.2858V13.156C18.9677 9.94971 16.2688 8.49163 13.921 8.49163C11.0305 8.49163 8.79492 10.8244 8.79492 13.7402C8.79492 16.6558 11.1862 18.9878 14.0767 18.9878Z" fill="#4169E1"/>
</svg>
