<svg width="27" height="32" viewBox="0 0 27 32" fill="none" xmlns="http://www.w3.org/2000/svg">
    <path
      d="M20.5269 21.1198C19.6448 20.1365 18.5436 20.1365 17.6671 21.1198C16.9985 21.8684 16.3299 22.617 15.6725 23.3783C15.4927 23.5877 15.341 23.6321 15.1219 23.4925C14.6893 23.2261 14.2286 23.0104 13.8128 22.7186C11.8745 21.3419 10.2507 19.5719 8.81242 17.5798C8.09888 16.5901 7.46399 15.5306 7.02014 14.3379C6.93024 14.0968 6.9471 13.9382 7.12127 13.7416C7.78986 13.012 8.4416 12.2634 9.09896 11.5148C10.0148 10.4743 10.0148 9.25625 9.09334 8.20947C8.57083 7.61312 8.04831 7.02945 7.5258 6.4331C6.98643 5.82406 6.45268 5.20868 5.90769 4.60599C5.02559 3.63533 3.92438 3.63533 3.0479 4.61233C2.37369 5.36094 1.72757 6.12858 1.04212 6.86451C0.407239 7.54333 0.0869881 8.37441 0.0195669 9.34507C-0.0871834 10.9248 0.255541 12.4156 0.738727 13.8685C1.72757 16.8756 3.23331 19.5465 5.0593 21.9953C7.5258 25.307 10.4699 27.9271 13.914 29.8177C15.4646 30.6678 17.0715 31.3212 18.8189 31.4291C20.0212 31.5052 21.0662 31.1626 21.9034 30.1032C22.4765 29.3799 23.1226 28.7201 23.7294 28.0286C24.6283 27.0009 24.6339 25.7574 23.7406 24.7423C22.6731 23.5306 21.6 22.3252 20.5269 21.1198Z"
      fill="#4169E1"
    ></path>
    <path
      d="M19.4537 16.0635L21.5269 15.6638C21.201 13.5132 20.302 11.5655 18.9368 10.0175C17.4928 8.38707 15.6668 7.35932 13.6554 7.04211L13.3633 9.3958C14.9196 9.64322 16.3354 10.4362 17.4535 11.6987C18.5098 12.8914 19.2008 14.4013 19.4537 16.0635Z"
      fill="#4169E1"
    ></path>
    <path
      d="M22.6956 5.88754C20.3022 3.18493 17.2738 1.47835 13.9308 0.951782L13.6387 3.30546C16.5266 3.76224 19.1448 5.24043 21.2124 7.56874C23.1732 9.78285 24.4598 12.5806 24.9262 15.6575L26.9994 15.2579C26.4544 11.6924 24.9655 8.45692 22.6956 5.88754Z"
      fill="#4169E1"
    ></path>
  </svg>