<svg width="26" height="43" viewBox="0 0 26 43" fill="none" xmlns="http://www.w3.org/2000/svg">
<path d="M22.977 0H3.02302C1.36061 0 0 1.30597 0 2.90434V40.0944C0 41.6928 1.36061 43 3.02302 43H22.977C24.6394 43 26 41.6953 26 40.0957V2.90434C26 1.30597 24.6394 0 22.977 0ZM9.80818 2.09349H16.1918C16.3939 2.09349 16.5575 2.25074 16.5575 2.44609C16.5575 2.6402 16.3939 2.79746 16.1918 2.79746H9.80818C9.60614 2.79746 9.44246 2.6402 9.44246 2.44609C9.44246 2.25074 9.60614 2.09349 9.80818 2.09349ZM13 41.5478C12.165 41.5478 11.4885 40.8979 11.4885 40.0944C11.4885 39.2909 12.165 38.6423 13 38.6423C13.835 38.6423 14.5115 39.2909 14.5115 40.0944C14.5115 40.8979 13.835 41.5478 13 41.5478ZM23.8964 37.625H2.10358V4.60591H23.8964V37.625Z" fill="#4169E1"/>
</svg>
